<svg id="arrow-left-square-fill" xmlns="http://www.w3.org/2000/svg" width="29.99" height="29.99" viewBox="0 0 29.99 29.99">
  <path id="Path_2" data-name="Path 2" d="M3.749,0A3.749,3.749,0,0,0,0,3.749V26.242A3.749,3.749,0,0,0,3.749,29.99H26.242a3.749,3.749,0,0,0,3.749-3.749V3.749A3.749,3.749,0,0,0,26.242,0Zm11.91,19.955a.938.938,0,1,1-1.327,1.327L8.708,15.659a.937.937,0,0,1,0-1.327l5.623-5.623a.938.938,0,1,1,1.327,1.327l-4.024,4.022h8.984a.937.937,0,1,1,0,1.874H11.635l4.025,4.023Z" fill="#cc071d" fill-rule="evenodd"/>
</svg>
