<svg id="Layer_1" data-name="Layer 1" xmlns="http://www.w3.org/2000/svg" viewBox="0 0 512 512"><defs><style>.cls-1{fill:#fff;}</style></defs><path class="cls-1" d="M36.5714,0A36.5322,36.5322,0,0,0,0,36.5714V146.2857a36.5715,36.5715,0,0,0,73.1429,0V73.1429h73.1428a36.5715,36.5715,0,0,0,0-73.1429ZM73.1429,365.7143a36.5715,36.5715,0,0,0-73.1429,0V475.4286A36.5321,36.5321,0,0,0,36.5714,512H146.2857a36.5715,36.5715,0,0,0,0-73.1429H73.1429ZM365.7143,0a36.5715,36.5715,0,0,0,0,73.1429h73.1428v73.1428a36.5715,36.5715,0,0,0,73.1429,0V36.5714A36.5321,36.5321,0,0,0,475.4286,0ZM512,365.7143a36.5715,36.5715,0,0,0-73.1429,0v73.1428H365.7143a36.5715,36.5715,0,0,0,0,73.1429H475.4286A36.5321,36.5321,0,0,0,512,475.4286Z"/></svg>