<?xml version="1.0" encoding="utf-8"?>
<!-- Generator: Adobe Illustrator 26.0.3, SVG Export Plug-In . SVG Version: 6.00 Build 0)  -->
<svg version="1.1" id="Layer_1" xmlns="http://www.w3.org/2000/svg" xmlns:xlink="http://www.w3.org/1999/xlink" x="0px" y="0px"
	 viewBox="0 0 512 512" style="enable-background:new 0 0 512 512;" xml:space="preserve">
<style type="text/css">
	.st0{fill:#CC071D;}
</style>
<path class="st0" d="M493.4,24.6l-104-24c-11.3-2.6-22.9,3.3-27.5,13.9l-48,112c-4.2,9.8-1.4,21.3,6.9,28l60.6,49.6
	c-36,76.7-98.9,140.5-177.2,177.2l-49.6-60.6c-6.8-8.3-18.2-11.1-28-6.9l-112,48c-10.7,4.7-16.6,16.3-14,27.6l24,104
	C27.1,504.2,36.7,512,48,512c256.1,0,464-207.5,464-464C512,36.8,504.3,27.1,493.4,24.6z"/>
</svg>
