<svg id="arrow-right-square-fill" xmlns="http://www.w3.org/2000/svg" width="29.99" height="29.99" viewBox="0 0 29.99 29.99">
  <path id="Path_2" data-name="Path 2" d="M26.242,0A3.749,3.749,0,0,1,29.99,3.749V26.242a3.749,3.749,0,0,1-3.749,3.749H3.749A3.749,3.749,0,0,1,0,26.242V3.749A3.749,3.749,0,0,1,3.749,0ZM14.332,19.955a.938.938,0,1,0,1.327,1.327l5.623-5.623a.937.937,0,0,0,0-1.327L15.659,8.709a.938.938,0,1,0-1.327,1.327l4.024,4.022H9.372a.937.937,0,0,0,0,1.874h8.984l-4.025,4.023Z" fill="#cc071d" fill-rule="evenodd"/>
</svg>
