<?xml version="1.0" encoding="utf-8"?>
<!-- Generator: Adobe Illustrator 26.0.3, SVG Export Plug-In . SVG Version: 6.00 Build 0)  -->
<svg version="1.1" id="Layer_1" xmlns="http://www.w3.org/2000/svg" xmlns:xlink="http://www.w3.org/1999/xlink" x="0px" y="0px"
	 viewBox="0 0 1000 1000" style="enable-background:new 0 0 1000 1000;" xml:space="preserve">
<style type="text/css">
	.st0{fill:#CC071D;}
	.st1{fill:#FFFFFF;}
</style>
<path class="st0" d="M843.8,125v625c0,17.3-14,31.2-31.2,31.2H281.2c-34.5,0-62.5,28-62.5,62.5H750c17.3,0,31.2,14,31.2,31.2
	s-14,31.2-31.2,31.2H187.5c-17.3,0-31.2-14-31.2-31.2V218.8c0.2-68.9,56.1-124.8,125-125h531.2C829.8,93.8,843.8,107.7,843.8,125z"
	/>
<polygon class="st1" points="437.5,439.7 333.3,439.7 500,606.3 666.7,439.7 562.5,439.7 562.5,314.7 437.5,314.7 "/>
</svg>
