<?xml version="1.0" encoding="utf-8"?>
<!-- Generator: Adobe Illustrator 26.0.3, SVG Export Plug-In . SVG Version: 6.00 Build 0)  -->
<svg version="1.1" id="Layer_1" xmlns="http://www.w3.org/2000/svg" xmlns:xlink="http://www.w3.org/1999/xlink" x="0px" y="0px"
	 viewBox="0 0 1000 1000" style="enable-background:new 0 0 1000 1000;" xml:space="preserve">
<g>
	<path d="M500.1,874.6c-85.3,0-170.7,0-256,0c-6.5,0-13-0.2-19.4-1.8c-21.3-5.6-36.8-18.5-47.1-37.8c-5.8-10.9-8.6-22.6-8-35
		c0.2-4.5,1-9,1.6-13.5c1.7-12.3,3.5-24.6,5.3-37c1.7-12.2,3.5-24.3,5.2-36.5c1.7-12.2,3.4-24.3,5.2-36.5
		c1.7-12.2,3.5-24.3,5.2-36.5c1.7-12.2,3.4-24.3,5.2-36.5c1.7-12.2,3.5-24.3,5.2-36.5c1.7-12.1,3.4-24.1,5.1-36.2
		c1.7-12.1,3.4-24.1,5.2-36.2c1.6-11,3.1-22,4.7-33c1.7-12.2,3.5-24.5,5.2-36.7c1.6-10.9,3.1-21.9,4.7-32.8
		c1.6-10.9,2.9-21.9,4.9-32.7c3-16.1,10.9-29.7,22.9-41c1.1-1,2.1-2.1,3.2-3.1c5.5-5.9,12.5-9.3,20.1-11.6
		c7.1-2.2,14.4-3.4,21.8-4.1c15.2-1.5,30.5-1,45.7-0.6c11,0.3,22.1,0.8,33.1,0.1c6.1-0.4,10.8-4,12.3-9.7c0.7-2.8,0.5-5.5-0.6-8.2
		c-2.6-7-4.5-14.1-5.6-21.5c-2.4-15.6-1.4-31.1,3.1-46.3c9.5-32.2,28.6-56.9,57.9-73.3c16.5-9.2,34.3-13.4,53.1-12.9
		c5.2,0.2,10.4,0.1,15.6,0.5c15.7,1.4,30.3,6.4,43.6,14.7c30.8,19.2,49.7,46.9,56.3,82.6c3.5,19,1.7,37.8-5.2,55.9
		c-2.1,5.6-0.7,11.9,4.2,15.5c2.1,1.6,4.5,2.5,7.1,2.5c8.7,0.1,17.5,0.3,26.2,0.2c13-0.1,26-0.5,39.1-0.4c9.1,0,18.3,0.9,27.3,2.7
		c6.2,1.3,12.1,3,17.8,5.9c4.3,2.2,8.1,5,11.4,8.5c1.7,1.8,3.5,3.5,5.3,5.2c12,12.3,18.9,27,21.2,43.9c1.6,12.1,3.4,24.1,5.1,36.2
		c1.6,11,3.1,22,4.7,33c1.7,12.2,3.5,24.5,5.2,36.7c1.7,12,3.4,24,5.1,36c1.8,12.3,3.5,24.6,5.3,37c1.5,10.8,3.1,21.7,4.6,32.5
		c1.8,12.3,3.5,24.6,5.3,36.9c1.7,12.1,3.4,24.1,5.1,36.2c1.7,12.1,3.4,24.1,5.2,36.2c1.6,11,3.1,22,4.7,33
		c1.7,12.2,3.5,24.5,5.2,36.7c1.6,10.9,3.1,21.9,4.7,32.8c0.4,2.5,0.8,5.1,1,7.6c1.7,16.5-2.4,31.6-11.4,45.4
		c-10.4,15.9-24.8,26.7-43.4,31.4c-5,1.3-10,1.8-15.2,1.8c-59.4,0-118.7,0-178.1,0C555,874.6,527.5,874.6,500.1,874.6z M500.2,814.6
		c85,0,170,0,255,0c0.8,0,1.7,0.1,2.5,0c1.4-0.2,2.8-0.3,4.1-0.7c6.3-2,9.6-7.7,8.7-14.8c-1-7.3-2.1-14.5-3.1-21.8
		c-1.7-12.2-3.5-24.5-5.2-36.7c-1.6-10.9-3.1-21.9-4.7-32.8c-1.7-12.2-3.5-24.5-5.2-36.7c-1.6-10.9-3.1-21.9-4.7-32.8
		c-1.6-11-3.1-22-4.7-33c-1.7-12.1-3.4-24.1-5.2-36.2c-1.7-12.2-3.5-24.3-5.2-36.5c-1.8-12.3-3.5-24.6-5.3-37
		c-1.6-10.9-3.1-21.9-4.7-32.8c-1.6-11-3.1-22-4.7-33c-1.7-12.1-3.4-24.1-5.2-36.2c-1.1-7.9-2.2-15.8-3.4-23.7
		c-0.9-5.7-5.3-9.8-11-10.5c-1.3-0.2-2.6-0.2-3.9-0.2c-124,0-248,0-372.1,0c-5.9,0-11.9,0-17.8,0c-7.5,0-12.5,4.3-13.6,11.7
		c-1.3,8.5-2.4,17-3.6,25.5c-1.7,12.2-3.5,24.5-5.2,36.7c-1.7,12.1-3.4,24.1-5.2,36.2c-1.6,10.9-3.1,21.9-4.7,32.8
		c-1.7,12.2-3.5,24.5-5.2,36.7c-1.6,10.9-3.1,21.9-4.7,32.8c-1.7,12.2-3.5,24.5-5.2,36.7c-1.6,11-3.2,22-4.7,33
		c-1.7,12-3.4,24-5.1,36c-1.6,11.2-3.2,22.4-4.8,33.5c-1.7,12.1-3.4,24.1-5.1,36.2c-1.6,11-3.2,22-4.7,33c-1,6.9-2,13.7-2.8,20.6
		c-0.8,6.7,3.9,12.6,10.5,13.7c1.5,0.2,3,0.3,4.4,0.3C329.9,814.6,415.1,814.6,500.2,814.6z M501.7,299.2c2-0.2,5.8-0.4,9.4-1.1
		c15.9-2.8,28.5-10.9,36.6-24.9c10.3-17.9,11-36.5,2.5-55.3c-6.1-13.5-16.5-22.7-30.6-27.5c-9.7-3.3-19.7-4-29.8-2.2
		c-16.3,2.8-28.9,11.1-37.3,25.4c-7.6,13-9.5,27.1-6.6,41.8c2.3,11.4,7.5,21.3,16,29.2C472.6,294.7,485.6,298.9,501.7,299.2z"/>
</g>
<g>
	<path d="M670.2,551.9c-0.7,0-1.2,0-1.7,0c-12.7,0-25.3,0-38,0c-0.9,0-1.5-0.2-2-1c-7.1-12.4-18.1-19.1-31.9-21.2
		c-9.4-1.4-18.7-0.9-27.7,2.1c-13.8,4.5-23.5,13.6-29.6,26.6c-4.8,10-6.3,20.6-5.9,31.7c0.3,10.5,2.6,20.5,7.8,29.6
		c7.8,13.6,19.6,21.8,35,24.8c10.7,2.1,21.4,1.9,31.8-1.7c13.5-4.7,22.7-14,28-27.2c1.4-3.5,2.3-7.1,3.6-10.8c-20.8,0-41,0-61.4,0
		c0-9.2,0-18.3,0-27.4c32.2,0,64.2,0,96.5,0c0,0.6,0,1.2,0,1.6c0,9.6,0.2,19-0.1,28.6c-0.1,3.5-1.3,7-2.3,10.4
		c-9.7,30.2-35.3,52.7-66.6,58.4c-20.4,3.6-40.3,1.7-59.2-7.2c-24.9-11.9-40.6-31.6-47.3-58.3c-3.1-12.6-3.4-25.3-1.7-38.1
		c2-15.4,7.6-29.4,16.8-41.9c11.5-15.4,26.7-25.5,45-31c11.9-3.6,24.1-4.5,36.5-3.6c13.1,0.9,25.5,4.1,37.1,10.3
		c18.3,9.8,30.8,24.6,37.2,44.3C669.9,551.1,670,551.4,670.2,551.9z"/>
	<path d="M371.6,676.4c-12.1,0-23.9,0-35.8,0c0-59.5,0-118.7,0-178.1c11.9,0,23.8,0,35.8,0c0,26.5,0,52.8,0,79.3
		c0.1,0,0.2,0.1,0.2,0.1c1-1.3,2-2.4,3-3.7c20.2-24.9,40.5-49.8,60.6-74.7c0.3-0.5,1.2-0.9,1.7-0.9c13.8,0,27.5,0,41.2,0
		c0.2,0,0.5,0,1,0.1c-24.6,29.5-49,58.9-73.4,88.2c25.2,30,50.2,59.7,75.4,89.8c-0.5,0.1-0.8,0.1-1.2,0.1c-14.3,0-28.7,0-43,0
		c-0.6,0-1.4-0.5-1.7-0.9c-11.1-13.4-22-26.9-33-40.3c-10-12.2-20.1-24.5-30-36.7c-0.2-0.2-0.5-0.6-0.9-1
		C371.6,623.8,371.6,650,371.6,676.4z"/>
</g>
</svg>
