<svg id="Layer_1" data-name="Layer 1" xmlns="http://www.w3.org/2000/svg" viewBox="0 0 500 500"><defs><style>.cls-1{fill:#cc071d;}.cls-2{fill:#fff;}</style></defs><circle class="cls-1" cx="250" cy="250" r="250"/><path class="cls-2" d="M164.7135,342.3937a21.3216,21.3216,0,0,0,21.3216,21.3216h127.93a21.3216,21.3216,0,0,0,21.3216-21.3216h0V193.1424H164.7135ZM285.536,228.6784a7.1072,7.1072,0,0,1,14.2144,0v99.5009a7.1072,7.1072,0,0,1-14.2144,0Zm-42.6432,0a7.1072,7.1072,0,1,1,14.2144,0v99.5009a7.1072,7.1072,0,1,1-14.2144,0Zm-42.6432,0a7.1072,7.1072,0,1,1,14.2144,0v99.5009a7.1072,7.1072,0,0,1-14.2144,0Zm142.1441-78.1792H289.09l-4.1754-8.3066a10.6609,10.6609,0,0,0-9.55-5.9078H224.5917a10.5362,10.5362,0,0,0-9.5058,5.9078l-4.1755,8.3066H157.6063a7.1072,7.1072,0,0,0-7.1072,7.1072v14.2144a7.1072,7.1072,0,0,0,7.1072,7.1072H342.3937a7.1072,7.1072,0,0,0,7.1072-7.1072V157.6064A7.1072,7.1072,0,0,0,342.3937,150.4992Z"/></svg>